<?xml version="1.0" standalone="no"?>
<!DOCTYPE svg PUBLIC "-//W3C//DTD SVG 20010904//EN"
 "http://www.w3.org/TR/2001/REC-SVG-20010904/DTD/svg10.dtd">
<svg version="1.0" xmlns="http://www.w3.org/2000/svg"
 width="1000.000000pt" height="505.000000pt" viewBox="0 0 1000.000000 505.000000"
 preserveAspectRatio="xMidYMid meet">

<g transform="translate(0.000000,505.000000) scale(0.100000,-0.100000)"
fill="#000000" stroke="none">
<path d="M0 3160 c0 -1039 1 -1890 3 -1890 2 0 52 -9 112 -20 60 -11 110 -18
112 -16 2 2 -1 25 -7 51 -10 46 -10 48 26 88 55 62 133 124 189 152 103 50
153 58 421 62 l252 5 57 -110 c32 -61 71 -125 88 -142 l32 -32 320 7 c259 5
344 4 445 -9 69 -8 202 -20 295 -26 448 -27 635 -41 738 -55 63 -8 191 -15
293 -15 152 0 200 -4 300 -24 161 -33 315 -50 382 -42 31 4 100 18 153 31 162
41 205 35 338 -50 71 -45 112 -50 446 -50 256 1 453 12 610 35 33 5 195 14
360 20 l300 11 222 65 223 64 580 -30 c573 -30 596 -30 1646 -30 l1064 0 0
1920 0 1920 -5000 0 -5000 0 0 -1890z"/>
</g>
</svg>
